<?xml version="1.0" encoding="utf-8"?>
<!-- Generator: Adobe Illustrator 18.1.1, SVG Export Plug-In . SVG Version: 6.00 Build 0)  -->
<svg version="1.1" id="Layer_1" xmlns="http://www.w3.org/2000/svg" xmlns:xlink="http://www.w3.org/1999/xlink" x="0px" y="0px"
	 viewBox="256 0 768 768" enable-background="new 256 0 768 768" xml:space="preserve">
<g>
	<path fill="#3D9970" d="M640,0C428,0,256,172,256,384s172,384,384,384s384-172,384-384S852,0,640,0z M640,708.9
		C460.3,708.9,315.1,563,315.1,384C315.1,204.3,461,59.1,640,59.1C819.7,59.1,964.9,205,964.9,384
		C964.9,563.7,819.7,708.9,640,708.9z"/>
	<path fill="#3D9970" d="M667.6,195.1c-0.8,0-165.9,0-165.9,0h-13.8v40.7l46.1,3.8c6.9,0.8,8.4,2.3,8.4,10v0.8v231.9
		c0,21.5-6.1,30-25.3,30c-8.4,0-17.7-2.3-20.7-3.1c-3.8-0.8-5.4-2.3-5.4-6.9l-5.4-36.9l-57.6-3.8V553c14.6,9.2,55.3,20,96.8,20
		c68.4,0,96.8-29.2,96.8-89.9V246.5c0,0,24.6,1.5,32.3,2.3c80.6,6.1,117.5,36.1,117.5,130.6c0,71.4-25.3,122.1-99.1,130.6l-13.8,0.8
		l-3.8,55.3h5.4c132.9,0,192.8-77.6,192.8-191.2C852,264.2,796.7,195.1,667.6,195.1z"/>
</g>
</svg>
